<svg xmlns="http://www.w3.org/2000/svg" width="14" height="14" viewBox="0 0 3.704 3.704">
    <path d="M.926.265a.662.662 0 10.001 1.324A.662.662 0 00.926.265zm0 1.24a.575.575 0 01-.378-.142s.004 0 .004-.005V1.35c0-.008.008-.008.008-.015.008-.03.008-.077.008-.107v-.023L.56 1.197c-.008 0-.008-.008-.016-.008S.528 1.181.52 1.181H.505s-.008 0-.008-.008c-.055-.03-.08-.084-.095-.145 0-.015-.008-.03-.008-.046C.386.974.386.967.38.96.363.944.37.914.386.883V.868c0-.008 0-.008.008-.015 0-.007 0-.007.008-.016C.418.807.45.784.465.761.473.753.473.753.473.746V.738C.481.73.481.715.49.708.489.7.497.683.497.676c0-.015 0-.023-.008-.038C.48.616.476.597.46.581A.584.584 0 01.564.473l.014.015H.65S.658.488.658.48L.666.472s.008 0 .008-.008L.682.456.69.448C.666.465.666.456.674.448.696.423.698.418.721.385A.575.575 0 01.926.348c.103 0 .2.027.283.074-.007.007-.01.003-.01.011-.022.008-.053-.008-.076-.016A.267.267 0 00.948.41C.925.417.872.425.894.473.91.498.948.522.986.49c.015-.017.03-.04.053-.017.008.008.008.017.008.025-.008.024-.03.032-.054.032-.03.008-.06 0-.091.008C.872.546.826.554.826.594.826.642.81.65.772.658c-.03 0-.046.016-.03.048.007.024.03.024.045.016C.848.69.902.61.97.706L.986.698c.015-.064.03-.024.045 0l.023.024c.092-.088.069.04.1.064C1.092.77 1.024.834.97.794.88.722.818.754.734.826a.185.185 0 00-.069.193c.023.08.107.088.176.072.023-.008.068-.008.068.008-.015.072.069.12.038.2-.023.065.016.145.069.169.053.024.1-.04.122-.096.008-.008 0-.024.008-.033.06-.08.053-.2.13-.28.022-.024.099-.112.037-.185.146-.04.092.105.123.169.022-.048.038-.096.053-.137a.126.126 0 01.013-.03.483.483 0 01.003.05.58.58 0 01-.58.58zm-.36-.28c-.002 0-.002 0 0 0z"
          fill="#789ffb" paint-order="stroke markers fill"/>
    <g class="icon-color" fill="#0042fa" stroke-width=".249" stroke-linejoin="round">
        <path d="M3.37.74L3 .37a.512.512 0 00-.741 0l-.953.926a.512.512 0 000 .741l.318.318.238-.212-.291-.29a.256.256 0 010-.371l.847-.847a.256.256 0 01.37 0l.291.291a.256.256 0 010 .37l-.344.344a.861.861 0 01.106.37l.53-.528c.184-.212.184-.556 0-.741z"/>
        <path d="M2.1 1.35l-.238.211.291.291a.256.256 0 010 .37l-.847.847a.256.256 0 01-.37 0l-.291-.29a.256.256 0 010-.371l.344-.344a.861.861 0 01-.106-.37l-.53.529a.512.512 0 000 .74l.371.37c.212.212.53.212.741 0l.926-.925a.512.512 0 000-.741z"/>
    </g>
</svg>
