<svg xmlns="http://www.w3.org/2000/svg" viewBox="0 0 3.704 3.704" height="14" width="14">
    <path d="M1.852 0C.831 0 0 .83 0 1.852c0 1.021.83 1.852 1.852 1.852 1.021 0 1.852-.83 1.852-1.852C3.704.831 2.874 0 1.852 0zm0 3.473a1.611 1.611 0 01-1.06-.398c.003.001.012.003.012-.015V3.04c0-.022.022-.022.022-.043.023-.086.023-.213.023-.299v-.064l-.022-.02c-.022 0-.022-.022-.044-.022s-.044-.022-.066-.022H.672s-.022 0-.022-.021c-.154-.086-.22-.235-.265-.406 0-.043-.022-.086-.022-.128C.342 1.992.342 1.97.32 1.949c-.044-.042-.022-.128.023-.213v-.043c0-.021 0-.021.022-.043 0-.02 0-.02.022-.042.044-.086.132-.15.176-.214.022-.02.022-.02.022-.042V1.33c.022-.022.022-.064.044-.086 0-.021.022-.064.022-.085 0-.043 0-.064-.022-.107C.606.99.593.934.55.892.633.779.73.677.839.589l.038.04h.202s.023 0 .023-.023l.022-.023s.023 0 .023-.024l.022-.024.022-.023c-.067.047-.067.023-.045 0 .066-.07.07-.083.135-.175a1.611 1.611 0 01.571-.106c.288 0 .558.077.793.21-.02.02-.026.008-.026.03-.064.023-.15-.022-.214-.045a.746.746 0 00-.491-.022c-.064.022-.214.045-.15.18.043.067.15.134.256.044.043-.045.086-.112.15-.045.021.023.021.046.021.068-.021.067-.086.09-.15.09-.085.022-.17 0-.256.022-.086.023-.213.045-.213.158 0 .134-.043.157-.15.18-.086 0-.128.044-.086.134.022.067.086.067.129.045.17-.09.32-.314.512-.045l.043-.023c.043-.18.086-.067.128 0l.064.068c.257-.247.192.112.278.18-.171-.046-.363.134-.513.022-.256-.202-.427-.112-.662.09-.192.157-.235.359-.192.538.064.225.299.248.491.203.064-.023.192-.023.192.022-.043.202.192.337.107.561-.064.18.043.404.192.471.15.068.278-.112.342-.27.021-.022 0-.066.021-.09.171-.224.15-.56.363-.785.064-.067.278-.314.107-.516.406-.112.257.292.342.471.064-.134.106-.27.15-.382a.353.353 0 01.035-.086c.005.047.008.095.008.143a1.622 1.622 0 01-1.62 1.62zM.842 2.69c-.003-.003-.003-.003 0 0z"
          fill="#789ffb" paint-order="stroke markers fill"/>
    <g class="icon-color" fill="#f96539" stroke="#000" stroke-width=".25" stroke-linejoin="round">
        <path d="M3.37.74L3 .37a.512.512 0 00-.741 0l-.953.926a.512.512 0 000 .741l.318.318.238-.212-.291-.29a.256.256 0 010-.371l.847-.847a.256.256 0 01.37 0l.291.291a.256.256 0 010 .37l-.344.344a.861.861 0 01.106.37l.53-.528c.184-.212.184-.556 0-.741z"
              stroke-width=".066145"/>
        <path d="M2.1 1.35l-.238.211.291.291a.256.256 0 010 .37l-.847.847a.256.256 0 01-.37 0l-.291-.29a.256.256 0 010-.371l.344-.344a.861.861 0 01-.106-.37l-.53.529a.512.512 0 000 .74l.371.37c.212.212.53.212.741 0l.926-.925a.512.512 0 000-.741z"
              stroke-width=".066145"/>
    </g>
</svg>
