<svg xmlns="http://www.w3.org/2000/svg" viewBox="0 0 157.20358 157.20358">
    <defs>
        <style>.a{fill:#75bdd2;}</style>
    </defs>
    <title>404</title>
    <rect class="a" width="157.20358" height="157.20358"/>
    <path d="M230.24351,200.47422c.64893,0,1.16067,0,1.6724,0q39.62766.00073,79.25531.00177c2.05584.00007,2.05734.00206,2.05832,1.99531.00141,2.87232.00036,5.74465.00036,8.70727H230.24351Z"
          transform="translate(-193.04994 -92.95236)"/>
    <path d="M237.35535,161.30861l-9.8766-9.55676,7.72524-8.2015,9.82089,9.96559c.60621-.56437.97485-.88762,1.32122-1.2332,2.65953-2.65335,5.33568-5.29062,7.95775-7.98057.72913-.748,1.22879-.86689,1.9913-.03387,2.16241,2.36239,4.39427,4.66122,6.5801,6.96538-3.12367,3.46139-6.19625,6.86616-9.31556,10.3227,2.70679,2.72879,5.68038,5.77861,8.73079,8.74954.49733.48438.844.75558.23117,1.28083-2.555,2.18989-5.12605,4.361-7.83857,6.66413-2.233-2.24922-5.12119-5.16333-8.01539-8.07143-1.35434-1.36084-1.46619-1.37734-2.81655.02688-2.77022,2.8807-5.51282,5.78795-8.40851,8.83331-1.93807-2.05-3.73257-3.9919-5.57578-5.88641-2.16277-2.223-2.1831-2.20705-.01149-4.37383C232.33065,166.30962,234.80989,163.84381,237.35535,161.30861Z"
          transform="translate(-193.04994 -92.95236)"/>
    <path d="M288.14123,143.45766a17.23142,17.23142,0,0,1,1.6965,1.34526q3.84768,3.93249,7.63734,7.9215c.73214.772,1.20492.39081,1.77365-.18459q3.908-3.95383,7.8508-7.87324c.35985-.3599.73451-.705,1.26-1.20785l7.46517,7.89639-9.76548,9.80572c3.02864,2.97335,5.77036,5.65132,8.49557,8.346,1.4556,1.4393,1.51426,1.53379.01148,2.85263-2.23971,1.96557-4.59219,3.80265-6.83436,5.64324-1.998-1.93064-4.79659-4.48632-7.41129-7.218-1.521-1.589-1.80093-2.25509-3.64968-.29439-2.68152,2.84388-5.49656,5.56187-8.43425,8.514-.71644-.81157-1.34347-1.57744-2.02883-2.287q-2.34018-2.4227-4.733-4.79425c-.641-.63252-.84917-.93612.02251-1.74968,3.04432-2.8413,5.9194-5.86395,8.80783-8.76647l-9.63337-9.99992Z"
          transform="translate(-193.04994 -92.95236)"/>
</svg>
