<svg xmlns="http://www.w3.org/2000/svg" viewBox="0 0 4.763 4.763" height="18" width="18">
    <path fill="#f96539" paint-order="stroke markers fill" d="M.004.005h4.762v4.762H.004z"/>
    <path d="M2.381.53C1.36.53.53 1.36.53 2.38c0 1.022.831 1.852 1.852 1.852 1.022 0 1.852-.83 1.852-1.852C4.233 1.36 3.403.53 2.381.53zm0 3.472a1.611 1.611 0 01-1.06-.398c.004.001.012.003.012-.014v-.022c0-.021.022-.021.022-.043.023-.085.023-.213.023-.298v-.064l-.022-.022c-.022 0-.022-.021-.044-.021s-.044-.021-.066-.021H1.2s-.022 0-.022-.022c-.154-.086-.22-.235-.264-.406 0-.043-.022-.085-.022-.128C.87 2.52.87 2.5.849 2.478c-.045-.042-.022-.127.022-.213v-.043c0-.02 0-.02.022-.042 0-.021 0-.021.022-.043.044-.085.132-.15.176-.213.022-.022.022-.022.022-.043V1.86c.022-.022.022-.064.044-.086 0-.02.023-.064.023-.085 0-.043 0-.064-.023-.107-.022-.063-.035-.118-.078-.16.083-.114.18-.216.289-.303l.038.04h.202s.023 0 .023-.023l.022-.024s.023 0 .023-.024l.022-.023.022-.024c-.067.047-.067.024-.045 0 .066-.07.07-.083.135-.175a1.611 1.611 0 01.571-.105c.288 0 .558.076.793.208-.02.021-.026.01-.026.031-.064.023-.15-.022-.214-.045a.746.746 0 00-.491-.022c-.064.022-.213.045-.15.18.043.067.15.134.257.045.042-.045.085-.113.149-.045.021.022.021.045.021.067-.021.067-.085.09-.15.09-.085.023-.17 0-.256.023-.085.022-.213.045-.213.157 0 .134-.043.157-.15.18-.086 0-.128.044-.086.134.022.067.086.067.129.045.17-.09.32-.314.513-.045l.042-.022c.043-.18.086-.068.128 0l.064.067c.257-.247.193.112.278.18-.17-.046-.363.134-.513.022-.256-.202-.427-.112-.662.09-.192.157-.235.359-.192.539.064.224.299.247.491.202.064-.023.192-.023.192.022-.043.202.192.337.107.561-.064.18.043.404.192.472.15.067.278-.113.342-.27.021-.022 0-.067.021-.09.171-.225.15-.561.363-.786.064-.067.278-.314.107-.516.406-.112.257.292.342.472.064-.135.106-.27.15-.383a.353.353 0 01.035-.086c.005.048.008.095.008.143a1.622 1.622 0 01-1.62 1.62zm-1.01-.782c-.003-.003-.003-.003 0 0z"
          fill="#fff" paint-order="stroke markers fill"/>
    <g class="icon-color" fill="#fff" stroke="#000" stroke-width=".25" stroke-linejoin="round">
        <path d="M3.898 1.27L3.528.9a.512.512 0 00-.74 0l-.953.926a.512.512 0 000 .74l.317.318.238-.212-.29-.29a.256.256 0 010-.371l.846-.847a.256.256 0 01.37 0l.291.291a.256.256 0 010 .37l-.344.345a.861.861 0 01.106.37l.53-.53c.185-.21.185-.555 0-.74z"
              stroke-width=".066145"/>
        <path d="M2.628 1.879l-.238.211.291.291a.256.256 0 010 .37l-.846.847a.256.256 0 01-.37 0l-.292-.29a.256.256 0 010-.371l.344-.344a.861.861 0 01-.106-.37l-.529.529a.512.512 0 000 .74l.37.37c.212.213.53.213.741 0l.926-.925a.512.512 0 000-.741z"
              stroke-width=".066145"/>
    </g>
</svg>
