<svg xmlns="http://www.w3.org/2000/svg" viewBox="0 0 4.763 4.763" height="18" width="18">
    <path fill="#0043f9" paint-order="stroke markers fill" d="M.004.005h4.762v4.762H.004z"/>
    <path d="M1.229.53a.7.7 0 10.001 1.4.7.7 0 00-.001-1.4zm0 1.31a.609.609 0 01-.4-.15s.004.002.004-.005v-.008c0-.008.008-.008.008-.016.009-.033.009-.081.009-.113v-.025L.84 1.515c-.008 0-.008-.008-.016-.008C.816 1.507.808 1.5.8 1.5H.783s-.008 0-.008-.008c-.059-.032-.084-.088-.1-.153 0-.016-.009-.032-.009-.048-.008-.008-.008-.017-.016-.025-.017-.016-.008-.048.008-.08v-.016c0-.008 0-.008.009-.017 0-.008 0-.008.008-.016.017-.032.05-.056.067-.08.008-.008.008-.008.008-.016v-.008c.008-.008.008-.025.016-.033 0-.008.009-.024.009-.032 0-.016 0-.024-.009-.04C.758.903.753.882.736.866a.619.619 0 01.11-.114L.86.767h.077s.008 0 .008-.01L.954.75s.008 0 .008-.01L.971.732.979.72C.954.74.954.732.962.722c.025-.026.027-.03.051-.065a.609.609 0 01.216-.04c.108 0 .21.029.3.079-.009.008-.01.003-.01.012-.025.008-.057-.008-.082-.017a.282.282 0 00-.185-.008c-.024.008-.08.017-.057.067.017.026.057.051.097.017.016-.017.033-.042.057-.017.008.01.008.018.008.026C1.349.8 1.324.809 1.3.809c-.032.008-.064 0-.097.008-.032.008-.08.017-.08.06 0 .05-.016.059-.057.067-.032 0-.048.017-.032.051.008.025.032.025.048.017.065-.034.121-.119.194-.017l.016-.008c.016-.068.032-.025.049 0l.024.025c.097-.093.072.043.105.068-.065-.017-.138.051-.194.008-.097-.076-.161-.042-.25.034a.196.196 0 00-.073.204c.024.085.113.093.186.076.024-.009.072-.009.072.008-.016.076.073.127.04.212-.024.068.017.153.073.178.057.026.105-.042.13-.102.007-.008 0-.025.007-.034.065-.084.057-.212.137-.296.025-.026.105-.12.04-.195.154-.043.098.11.13.178.024-.051.04-.102.056-.145a.134.134 0 01.014-.032.513.513 0 01.003.054.613.613 0 01-.612.612zm-.382-.295c-.001 0-.001 0 0 0z"
          fill="#fff" paint-order="stroke markers fill"/>
    <g class="icon-color" fill="#fff" stroke-width=".25" stroke-linejoin="round">
        <path d="M3.898 1.27L3.528.9a.512.512 0 00-.74 0l-.953.926a.512.512 0 000 .74l.317.318.238-.212-.29-.29a.256.256 0 010-.371l.846-.847a.256.256 0 01.37 0l.291.291a.256.256 0 010 .37l-.344.345a.861.861 0 01.106.37l.53-.53c.185-.21.185-.555 0-.74z"/>
        <path d="M2.628 1.879l-.238.211.291.291a.256.256 0 010 .37l-.846.847a.256.256 0 01-.37 0l-.292-.29a.256.256 0 010-.371l.344-.344a.861.861 0 01-.106-.37l-.529.529a.512.512 0 000 .74l.37.37c.212.213.53.213.741 0l.926-.925a.512.512 0 000-.741z"/>
    </g>
</svg>
